<?xml version="1.0" standalone="no"?>
<!DOCTYPE svg PUBLIC "-//W3C//DTD SVG 20010904//EN"
 "http://www.w3.org/TR/2001/REC-SVG-20010904/DTD/svg10.dtd">
<svg version="1.0" xmlns="http://www.w3.org/2000/svg"
 width="1536.000000pt" height="1024.000000pt" viewBox="0 0 1536.000000 1024.000000"
 preserveAspectRatio="xMidYMid meet">

<g transform="translate(0.000000,1024.000000) scale(0.100000,-0.100000)"
fill="#000000" stroke="none">
<path d="M4314 7864 c-18 -14 -18 -14 6 -3 31 14 36 19 24 19 -6 0 -19 -7 -30
-16z"/>
<path d="M4436 7848 c10 -14 21 -24 23 -22 3 3 -6 15 -18 27 l-24 22 19 -27z"/>
<path d="M4284 7705 c0 -60 1 -84 3 -52 2 32 2 81 0 110 -2 29 -3 3 -3 -58z"/>
<path d="M4282 7555 c0 -16 2 -22 5 -12 2 9 2 23 0 30 -3 6 -5 -1 -5 -18z"/>
<path d="M5560 7556 c0 -2 8 -10 18 -17 15 -13 16 -12 3 4 -13 16 -21 21 -21
13z"/>
<path d="M4282 7490 c0 -19 2 -27 5 -17 2 9 2 25 0 35 -3 9 -5 1 -5 -18z"/>
<path d="M4451 7504 c0 -11 3 -14 6 -6 3 7 2 16 -1 19 -3 4 -6 -2 -5 -13z"/>
<path d="M3370 7480 c6 -11 13 -20 16 -20 2 0 0 9 -6 20 -6 11 -13 20 -16 20
-2 0 0 -9 6 -20z"/>
<path d="M4453 7425 c0 -22 2 -30 4 -17 2 12 2 30 0 40 -3 9 -5 -1 -4 -23z"/>
<path d="M5581 7433 c-10 -26 -10 -27 4 -9 8 11 15 23 15 28 0 15 -7 8 -19
-19z"/>
<path d="M3200 7420 c6 -11 13 -20 16 -20 2 0 0 9 -6 20 -6 11 -13 20 -16 20
-2 0 0 -9 6 -20z"/>
<path d="M4282 7415 c0 -16 2 -22 5 -12 2 9 2 23 0 30 -3 6 -5 -1 -5 -18z"/>
<path d="M3230 7370 c6 -11 13 -20 16 -20 2 0 0 9 -6 20 -6 11 -13 20 -16 20
-2 0 0 -9 6 -20z"/>
<path d="M5323 7358 c-15 -20 -25 -38 -20 -38 3 0 12 11 21 25 17 26 16 35 -1
13z"/>
<path d="M3260 7320 c6 -11 13 -20 16 -20 2 0 0 9 -6 20 -6 11 -13 20 -16 20
-2 0 0 -9 6 -20z"/>
<path d="M5270 7280 c-6 -11 -8 -20 -6 -20 3 0 10 9 16 20 6 11 8 20 6 20 -3
0 -10 -9 -16 -20z"/>
<path d="M3500 7270 c6 -11 13 -20 16 -20 2 0 0 9 -6 20 -6 11 -13 20 -16 20
-2 0 0 -9 6 -20z"/>
<path d="M3309 7245 c5 -11 17 -29 26 -40 l16 -20 -10 20 c-5 11 -17 29 -26
40 l-16 20 10 -20z"/>
<path d="M5215 7199 c-4 -6 -5 -12 -2 -15 2 -3 7 2 10 11 7 17 1 20 -8 4z"/>
<path d="M3366 7152 c10 -18 28 -41 38 -50 12 -10 8 0 -9 23 -40 56 -51 66
-29 27z"/>
<path d="M3562 7150 c0 -19 2 -27 5 -17 2 9 2 25 0 35 -3 9 -5 1 -5 -18z"/>
<path d="M5202 7145 c0 -16 2 -22 5 -12 2 9 2 23 0 30 -3 6 -5 -1 -5 -18z"/>
<path d="M3534 7088 l-19 -23 23 19 c21 18 27 26 19 26 -2 0 -12 -10 -23 -22z"/>
<path d="M5210 7106 c0 -2 8 -10 18 -17 15 -13 16 -12 3 4 -13 16 -21 21 -21
13z"/>
<path d="M5359 7093 c-13 -16 -12 -17 4 -4 9 7 17 15 17 17 0 8 -8 3 -21 -13z"/>
<path d="M3468 7063 c6 -2 18 -2 25 0 6 3 1 5 -13 5 -14 0 -19 -2 -12 -5z"/>
<path d="M5288 7063 c6 -2 18 -2 25 0 6 3 1 5 -13 5 -14 0 -19 -2 -12 -5z"/>
<path d="M4328 6913 c12 -2 30 -2 40 0 9 3 -1 5 -23 4 -22 0 -30 -2 -17 -4z"/>
<path d="M4203 6903 c9 -2 23 -2 30 0 6 3 -1 5 -18 5 -16 0 -22 -2 -12 -5z"/>
<path d="M4518 6903 c6 -2 18 -2 25 0 6 3 1 5 -13 5 -14 0 -19 -2 -12 -5z"/>
<path d="M4098 6883 c6 -2 18 -2 25 0 6 3 1 5 -13 5 -14 0 -19 -2 -12 -5z"/>
<path d="M4020 6870 c-13 -9 -13 -10 0 -9 8 1 26 5 40 9 l25 8 -25 1 c-14 0
-32 -4 -40 -9z"/>
<path d="M3940 6840 c-8 -5 -10 -10 -5 -10 6 0 17 5 25 10 8 5 11 10 5 10 -5
0 -17 -5 -25 -10z"/>
<path d="M3797 6776 c-21 -13 -43 -29 -50 -35 -10 -11 90 43 102 55 12 11 -19
-1 -52 -20z"/>
<path d="M4891 6796 c2 -2 15 -9 29 -15 24 -11 24 -11 6 3 -16 13 -49 24 -35
12z"/>
<path d="M3699 6709 l-24 -20 28 17 c15 9 27 18 27 20 0 8 -8 4 -31 -17z"/>
<path d="M5020 6727 c0 -2 19 -17 43 -32 23 -16 37 -22 30 -14 -12 15 -73 53
-73 46z"/>
<path d="M3573 6615 c-34 -30 -80 -79 -103 -107 l-42 -53 53 58 c30 33 79 81
109 108 30 26 52 49 49 49 -3 0 -33 -25 -66 -55z"/>
<path d="M6266 6637 c3 -10 9 -15 12 -12 3 3 0 11 -7 18 -10 9 -11 8 -5 -6z"/>
<path d="M8608 6610 c-41 -22 -78 -76 -77 -111 1 -19 3 -16 11 11 19 68 78
110 153 110 80 0 143 -49 152 -118 17 -124 -104 -215 -218 -165 -53 24 -62 34
-82 93 -11 30 -16 37 -17 22 -1 -70 85 -142 168 -142 38 0 109 38 133 71 30
42 36 125 11 169 -40 74 -153 102 -234 60z"/>
<path d="M11830 6607 c-46 -24 -81 -75 -79 -117 1 -21 2 -19 9 9 23 98 131
149 219 103 48 -24 72 -60 81 -123 7 -49 8 -51 9 -15 4 126 -125 203 -239 143z"/>
<path d="M5995 6610 c-3 -6 1 -7 9 -4 18 7 21 14 7 14 -6 0 -13 -4 -16 -10z"/>
<path d="M5240 6545 c35 -36 67 -65 69 -65 3 0 -24 29 -59 65 -35 36 -67 65
-69 65 -3 0 24 -29 59 -65z"/>
<path d="M5950 6590 c-8 -5 -10 -10 -5 -10 6 0 17 5 25 10 8 5 11 10 5 10 -5
0 -17 -5 -25 -10z"/>
<path d="M7224 6593 c91 -3 145 -8 154 -16 8 -7 85 -153 170 -325 85 -172 158
-309 162 -305 10 10 64 116 195 383 59 118 116 225 127 238 20 21 29 22 160
22 125 0 140 -2 158 -20 20 -20 20 -33 20 -613 0 -553 -1 -595 -17 -610 -10
-8 -29 -17 -43 -20 -21 -4 -20 -4 7 -6 65 -2 63 -22 63 637 l0 593 -25 24
c-23 24 -29 25 -163 25 -135 0 -140 -1 -166 -25 -15 -14 -76 -127 -142 -263
-121 -250 -163 -332 -173 -344 -4 -5 -76 132 -161 303 -85 171 -162 315 -172
320 -9 5 -79 8 -155 7 l-138 -2 139 -3z"/>
<path d="M9436 6579 l-26 -20 0 -603 c0 -567 1 -604 18 -619 14 -13 43 -17
134 -19 120 -2 149 5 147 41 0 11 -3 10 -11 -6 -12 -26 -21 -27 -158 -23 -52
1 -101 7 -107 12 -20 16 -19 1197 1 1224 13 17 31 20 163 25 l148 5 -141 2
c-129 2 -144 0 -168 -19z"/>
<path d="M10553 6591 c122 -5 140 -8 153 -25 8 -11 14 -15 14 -8 0 6 -10 18
-22 26 -18 13 -49 16 -153 14 l-130 -2 138 -5z"/>
<path d="M7057 6572 c-15 -17 -17 -74 -17 -619 0 -559 1 -601 18 -615 25 -23
51 -27 102 -18 44 8 44 8 -16 7 -38 -1 -68 4 -78 12 -14 12 -16 75 -16 610 0
524 2 599 16 619 18 27 13 29 -9 4z"/>
<path d="M9767 6565 c12 -17 50 -94 86 -170 35 -77 100 -212 143 -299 l79
-159 148 304 c82 167 158 314 169 327 12 12 17 22 11 22 -6 0 -16 -6 -22 -14
-12 -14 -163 -316 -252 -503 -27 -57 -51 -103 -54 -103 -6 0 -180 354 -257
520 -19 41 -43 82 -53 90 -17 13 -16 11 2 -15z"/>
<path d="M5910 6570 c-9 -6 -10 -10 -3 -10 6 0 15 5 18 10 8 12 4 12 -15 0z"/>
<path d="M2405 6550 c10 -11 20 -20 23 -20 3 0 -3 9 -13 20 -10 11 -20 20 -23
20 -3 0 3 -9 13 -20z"/>
<path d="M6249 6543 c-13 -16 -12 -17 4 -4 9 7 17 15 17 17 0 8 -8 3 -21 -13z"/>
<path d="M10720 5948 c-4 -473 -8 -600 -18 -610 -17 -17 -237 -14 -258 3 -12
9 -14 79 -14 398 l0 386 -24 -50 c-99 -212 -147 -312 -186 -390 l-45 -90 -85
-3 c-47 -2 -95 -1 -106 2 -16 4 -45 53 -112 188 -50 101 -100 205 -112 232
-11 27 -23 46 -26 43 -10 -10 213 -455 234 -466 11 -6 61 -11 110 -11 73 0 92
3 105 18 15 16 182 357 218 444 12 29 15 -13 19 -334 4 -275 8 -370 18 -380 8
-8 50 -12 132 -13 107 0 121 2 140 20 20 20 20 28 18 615 l-3 595 -5 -597z"/>
<path d="M2454 6516 c11 -9 24 -16 30 -16 12 0 7 5 -24 19 -24 11 -24 11 -6
-3z"/>
<path d="M6090 6465 c-14 -8 -20 -14 -15 -14 6 0 21 6 35 14 14 8 21 14 15 14
-5 0 -21 -6 -35 -14z"/>
<path d="M2590 6450 c19 -11 40 -19 45 -19 6 0 -6 8 -25 19 -19 11 -39 19 -45
19 -5 0 6 -8 25 -19z"/>
<path d="M5325 6450 c10 -11 20 -20 23 -20 3 0 -3 9 -13 20 -10 11 -20 20 -23
20 -3 0 3 -9 13 -20z"/>
<path d="M11751 6447 c-3 -49 61 -127 104 -127 6 0 -3 8 -20 19 -42 25 -62 50
-73 91 -6 19 -11 27 -11 17z"/>
<path d="M3409 6433 c-13 -16 -12 -17 4 -4 9 7 17 15 17 17 0 8 -8 3 -21 -13z"/>
<path d="M5970 6410 c-8 -5 -10 -10 -5 -10 6 0 17 5 25 10 8 5 11 10 5 10 -5
0 -17 -5 -25 -10z"/>
<path d="M12041 6397 c-18 -34 -74 -68 -128 -77 -43 -7 -45 -8 -13 -9 44 -1
117 35 144 71 11 15 17 30 15 33 -3 3 -11 -5 -18 -18z"/>
<path d="M3383 6398 c-15 -20 -25 -38 -20 -38 3 0 12 11 21 25 17 26 16 35 -1
13z"/>
<path d="M5790 6396 c0 -2 8 -10 18 -17 15 -13 16 -12 3 4 -13 16 -21 21 -21
13z"/>
<path d="M2740 6380 c8 -5 20 -10 25 -10 6 0 3 5 -5 10 -8 5 -19 10 -25 10 -5
0 -3 -5 5 -10z"/>
<path d="M5385 6366 c10 -14 19 -26 22 -26 7 0 -17 39 -28 46 -6 3 -3 -5 6
-20z"/>
<path d="M5848 6363 c7 -3 16 -2 19 1 4 3 -2 6 -13 5 -11 0 -14 -3 -6 -6z"/>
<path d="M5420 6312 c6 -13 14 -21 18 -18 3 4 -2 14 -12 24 -18 16 -18 16 -6
-6z"/>
<path d="M3315 6290 c-9 -16 -13 -30 -11 -30 3 0 12 14 21 30 9 17 13 30 11
30 -3 0 -12 -13 -21 -30z"/>
<path d="M3287 6243 c-4 -3 -7 -11 -7 -17 0 -6 5 -5 12 2 6 6 9 14 7 17 -3 3
-9 2 -12 -2z"/>
<path d="M11243 6243 c15 -2 39 -2 55 0 15 2 2 4 -28 4 -30 0 -43 -2 -27 -4z"/>
<path d="M12553 6243 c20 -2 54 -2 75 0 20 2 3 4 -38 4 -41 0 -58 -2 -37 -4z"/>
<path d="M5466 6227 c3 -10 9 -15 12 -12 3 3 0 11 -7 18 -10 9 -11 8 -5 -6z"/>
<path d="M11105 6221 c-128 -46 -224 -145 -271 -281 -24 -68 -27 -292 -6 -353
20 -55 23 -41 6 28 -16 71 -18 190 -4 266 31 166 154 299 318 344 26 7 38 13
27 14 -11 0 -43 -8 -70 -18z"/>
<path d="M11358 6233 c6 -2 18 -2 25 0 6 3 1 5 -13 5 -14 0 -19 -2 -12 -5z"/>
<path d="M12440 6231 c-113 -35 -209 -120 -266 -237 -35 -69 -37 -81 -42 -192
-5 -138 6 -199 51 -285 55 -104 171 -198 262 -211 l40 -6 -40 13 c-197 67
-305 224 -305 444 0 152 35 253 118 344 56 61 122 101 203 123 30 8 43 15 29
14 -14 0 -36 -3 -50 -7z"/>
<path d="M12730 6224 c129 -35 215 -106 276 -228 104 -211 53 -472 -118 -607
-75 -59 -144 -81 -283 -89 l-120 -7 95 -1 c98 -2 181 13 248 45 59 28 159 129
187 190 108 227 45 516 -141 644 -47 32 -144 69 -178 68 -12 0 4 -7 34 -15z"/>
<path d="M13534 6210 c-50 -28 -145 -124 -143 -145 0 -5 8 1 17 15 64 93 134
140 226 150 l61 7 -55 2 c-44 1 -65 -5 -106 -29z"/>
<path d="M11455 6201 c53 -25 102 -68 143 -122 7 -10 21 -41 32 -70 11 -30 19
-46 20 -36 0 32 -49 124 -90 166 -38 39 -125 91 -152 91 -7 0 14 -13 47 -29z"/>
<path d="M13700 6225 c0 -6 4 -15 10 -21 5 -5 11 -47 13 -94 l3 -85 2 86 c1
62 -2 90 -13 105 -8 10 -15 14 -15 9z"/>
<path d="M8557 6202 c-15 -17 -17 -61 -17 -434 0 -393 1 -416 19 -432 10 -9
35 -19 54 -23 57 -9 205 7 222 24 13 12 15 76 15 422 0 503 14 461 -159 461
-102 0 -120 -3 -134 -18z m267 -14 c14 -19 16 -77 16 -429 0 -336 -2 -409 -14
-418 -21 -18 -239 -19 -260 -2 -14 12 -16 58 -16 427 0 362 2 415 16 428 12
13 39 16 129 16 106 0 115 -1 129 -22z"/>
<path d="M11780 6200 c-19 -19 -20 -33 -20 -497 0 -459 -1 -479 -20 -510 -17
-28 -25 -33 -59 -33 -39 0 -71 -19 -71 -43 0 -6 7 -1 16 11 11 16 25 22 53 22
27 0 44 7 62 26 l24 26 5 487 c4 393 8 491 19 504 20 25 222 25 242 0 11 -13
15 -106 19 -472 l5 -456 3 451 c3 551 16 504 -149 504 -96 0 -111 -2 -129 -20z"/>
<path d="M13233 6213 c26 -2 67 -2 90 0 23 2 2 3 -48 3 -49 0 -68 -1 -42 -3z"/>
<path d="M13162 6198 c-9 -9 -12 -119 -12 -434 0 -233 3 -425 8 -427 4 -3 6
186 4 420 -2 308 1 429 9 439 14 17 7 18 -9 2z"/>
<path d="M5491 6180 c-1 -3 8 -27 19 -55 10 -27 19 -43 19 -35 0 14 -36 101
-38 90z"/>
<path d="M13393 6140 c0 -25 2 -35 4 -22 2 12 2 32 0 45 -2 12 -4 2 -4 -23z"/>
<path d="M3246 6145 c-9 -26 -7 -32 5 -12 6 10 9 21 6 23 -2 3 -7 -2 -11 -11z"/>
<path d="M8060 6098 c-3 -292 3 -734 10 -748 13 -25 63 -40 133 -40 83 0 65
11 -24 15 -117 5 -110 -22 -107 422 2 205 0 373 -4 373 -5 0 -8 -10 -8 -22z"/>
<path d="M7340 5735 c0 -251 -4 -383 -11 -391 -6 -7 -36 -15 -67 -17 l-57 -3
56 -2 c93 -3 88 -22 91 390 l3 355 105 -218 c58 -121 115 -230 127 -244 20
-23 29 -25 113 -25 50 0 101 5 112 11 20 11 234 436 225 446 -3 2 -14 -15 -25
-39 -151 -317 -185 -385 -199 -395 -11 -8 -51 -13 -108 -13 -75 0 -95 3 -107
18 -19 20 -96 175 -180 357 -33 72 -63 134 -68 139 -5 5 -9 -152 -10 -369z"/>
<path d="M9704 6094 c3 -9 6 -18 6 -20 0 -2 4 -4 9 -4 5 0 7 9 4 20 -3 11 -10
20 -15 20 -6 0 -7 -7 -4 -16z"/>
<path d="M3212 6041 c-7 -21 -12 -45 -11 -52 0 -8 7 8 15 35 9 26 13 50 11 52
-2 2 -9 -13 -15 -35z"/>
<path d="M5541 6030 c0 -8 4 -24 9 -35 5 -13 9 -14 9 -5 0 8 -4 24 -9 35 -5
13 -9 14 -9 5z"/>
<path d="M11182 6020 c-36 -22 -72 -74 -72 -105 0 -11 11 2 24 32 25 52 47 71
101 84 27 6 28 7 5 8 -14 0 -40 -8 -58 -19z"/>
<path d="M11305 6027 c49 -15 87 -74 82 -124 -2 -18 1 -33 5 -33 13 0 9 58 -6
93 -18 43 -45 66 -87 72 -33 5 -32 5 6 -8z"/>
<path d="M9714 5705 c0 -181 2 -257 3 -168 2 89 2 237 0 330 -1 92 -3 20 -3
-162z"/>
<path d="M12519 5997 c-37 -25 -79 -91 -78 -122 1 -15 3 -13 9 7 44 147 210
174 284 48 18 -30 21 -52 21 -155 0 -105 -3 -125 -23 -163 -14 -27 -34 -48
-55 -56 -59 -26 -82 -37 -64 -31 10 3 27 5 37 5 36 0 89 58 106 117 23 79 16
233 -12 288 -41 79 -153 110 -225 62z"/>
<path d="M13705 6001 c-3 -12 -16 -23 -28 -25 -12 -2 -48 -9 -80 -14 -72 -14
-114 -43 -138 -96 -17 -37 -18 -65 -17 -266 l2 -225 6 237 c5 220 6 239 26
265 32 43 80 71 132 78 79 10 91 14 103 36 6 11 8 23 6 26 -3 2 -8 -5 -12 -16z"/>
<path d="M3192 5950 c0 -14 2 -19 5 -12 2 6 2 18 0 25 -3 6 -5 1 -5 -13z"/>
<path d="M5562 5940 c0 -14 2 -19 5 -12 2 6 2 18 0 25 -3 6 -5 1 -5 -13z"/>
<path d="M11652 5920 c0 -19 2 -27 5 -17 2 9 2 25 0 35 -3 9 -5 1 -5 -18z"/>
<path d="M3182 5895 c0 -16 2 -22 5 -12 2 9 2 23 0 30 -3 6 -5 -1 -5 -18z"/>
<path d="M5578 5800 c3 -63 6 -117 8 -119 7 -8 3 154 -5 194 -5 24 -6 -5 -3
-75z"/>
<path d="M11101 5868 c-1 -24 3 -28 27 -27 22 1 23 2 5 6 -13 2 -24 13 -26 26
-4 18 -5 17 -6 -5z"/>
<path d="M3032 5860 c0 -14 2 -19 5 -12 2 6 2 18 0 25 -3 6 -5 1 -5 -13z"/>
<path d="M11662 5821 c-1 -44 -8 -71 -19 -85 l-17 -21 22 21 c20 18 23 28 19
85 l-3 64 -2 -64z"/>
<path d="M11225 5860 l-60 -7 50 0 c28 -1 75 2 105 7 54 7 54 7 10 7 -25 0
-72 -3 -105 -7z"/>
<path d="M12434 5755 c1 -82 6 -109 25 -148 24 -49 68 -82 99 -74 13 4 12 5
-4 6 -31 2 -74 39 -92 80 -8 20 -19 81 -23 136 l-7 100 2 -100z"/>
<path d="M3174 5730 c0 -63 1 -89 3 -57 2 31 2 83 0 115 -2 31 -3 5 -3 -58z"/>
<path d="M11540 5710 l-45 -7 40 -1 c22 0 51 4 65 8 32 10 5 10 -60 0z"/>
<path d="M11398 5693 c17 -2 47 -2 65 0 17 2 3 4 -33 4 -36 0 -50 -2 -32 -4z"/>
<path d="M3023 5675 c0 -8 4 -15 9 -15 4 0 8 4 8 9 0 6 -4 12 -8 15 -5 3 -9
-1 -9 -9z"/>
<path d="M11283 5683 c15 -2 39 -2 55 0 15 2 2 4 -28 4 -30 0 -43 -2 -27 -4z"/>
<path d="M11143 5673 c15 -2 39 -2 55 0 15 2 2 4 -28 4 -30 0 -43 -2 -27 -4z"/>
<path d="M3033 5610 c0 -25 2 -35 4 -22 2 12 2 32 0 45 -2 12 -4 2 -4 -23z"/>
<path d="M11110 5634 c-1 -35 92 -124 129 -124 9 0 -2 9 -24 19 -43 20 -64 40
-88 86 -9 17 -16 25 -17 19z"/>
<path d="M2735 5610 c10 -11 20 -20 23 -20 3 0 -3 9 -13 20 -10 11 -20 20 -23
20 -3 0 3 -9 13 -20z"/>
<path d="M5572 5605 c0 -16 2 -22 5 -12 2 9 2 23 0 30 -3 6 -5 -1 -5 -18z"/>
<path d="M6108 5613 c7 -3 16 -2 19 1 4 3 -2 6 -13 5 -11 0 -14 -3 -6 -6z"/>
<path d="M2518 5603 c7 -3 16 -2 19 1 4 3 -2 6 -13 5 -11 0 -14 -3 -6 -6z"/>
<path d="M3182 5575 c0 -16 2 -22 5 -12 2 9 2 23 0 30 -3 6 -5 -1 -5 -18z"/>
<path d="M2418 5583 c7 -3 16 -2 19 1 4 3 -2 6 -13 5 -11 0 -14 -3 -6 -6z"/>
<path d="M2368 5573 c7 -3 16 -2 19 1 4 3 -2 6 -13 5 -11 0 -14 -3 -6 -6z"/>
<path d="M2762 5550 c0 -19 2 -27 5 -17 2 9 2 25 0 35 -3 9 -5 1 -5 -18z"/>
<path d="M6308 5573 c7 -3 16 -2 19 1 4 3 -2 6 -13 5 -11 0 -14 -3 -6 -6z"/>
<path d="M2318 5563 c7 -3 16 -2 19 1 4 3 -2 6 -13 5 -11 0 -14 -3 -6 -6z"/>
<path d="M6358 5563 c7 -3 16 -2 19 1 4 3 -2 6 -13 5 -11 0 -14 -3 -6 -6z"/>
<path d="M11520 5553 c-19 -9 -57 -22 -85 -29 -29 -7 -40 -13 -25 -13 22 0 89
20 141 43 10 4 23 1 33 -9 9 -9 16 -12 16 -6 0 9 -33 33 -42 30 -2 0 -19 -8
-38 -16z"/>
<path d="M6446 5528 c10 -14 21 -24 23 -22 3 3 -6 15 -18 27 l-24 22 19 -27z"/>
<path d="M10850 5534 c0 -18 56 -98 96 -136 38 -35 109 -78 129 -78 5 0 -15
14 -45 31 -70 38 -114 81 -151 144 -16 28 -29 45 -29 39z"/>
<path d="M3192 5510 c0 -14 2 -19 5 -12 2 6 2 18 0 25 -3 6 -5 1 -5 -13z"/>
<path d="M11600 5513 c0 -5 5 -27 10 -51 6 -23 7 -54 4 -67 -7 -28 -59 -56
-144 -79 -30 -8 -46 -15 -35 -15 26 -1 104 23 144 44 46 23 55 51 41 119 -6
31 -13 56 -16 56 -2 0 -4 -3 -4 -7z"/>
<path d="M2745 5499 c-4 -6 -17 -14 -29 -19 -14 -6 -16 -9 -5 -9 9 -1 24 8 34
19 10 11 15 20 12 20 -3 0 -9 -5 -12 -11z"/>
<path d="M5950 5501 c0 -6 4 -13 10 -16 6 -3 7 1 4 9 -7 18 -14 21 -14 7z"/>
<path d="M11288 5503 c17 -2 47 -2 65 0 17 2 3 4 -33 4 -36 0 -50 -2 -32 -4z"/>
<path d="M5551 5474 c0 -11 3 -14 6 -6 3 7 2 16 -1 19 -3 4 -6 -2 -5 -13z"/>
<path d="M6472 5470 c0 -14 2 -19 5 -12 2 6 2 18 0 25 -3 6 -5 1 -5 -13z"/>
<path d="M3202 5460 c0 -14 2 -19 5 -12 2 6 2 18 0 25 -3 6 -5 1 -5 -13z"/>
<path d="M6010 5460 c8 -5 24 -10 34 -10 26 0 18 6 -19 14 -22 5 -26 4 -15 -4z"/>
<path d="M2628 5453 c6 -2 18 -2 25 0 6 3 1 5 -13 5 -14 0 -19 -2 -12 -5z"/>
<path d="M2588 5443 c7 -3 16 -2 19 1 4 3 -2 6 -13 5 -11 0 -14 -3 -6 -6z"/>
<path d="M6078 5443 c7 -3 16 -2 19 1 4 3 -2 6 -13 5 -11 0 -14 -3 -6 -6z"/>
<path d="M2538 5433 c6 -2 18 -2 25 0 6 3 1 5 -13 5 -14 0 -19 -2 -12 -5z"/>
<path d="M2498 5423 c7 -3 16 -2 19 1 4 3 -2 6 -13 5 -11 0 -14 -3 -6 -6z"/>
<path d="M3215 5405 c6 -34 46 -137 51 -133 1 2 -11 39 -27 83 -16 44 -27 67
-24 50z"/>
<path d="M6168 5423 c6 -2 18 -2 25 0 6 3 1 5 -13 5 -14 0 -19 -2 -12 -5z"/>
<path d="M2448 5413 c7 -3 16 -2 19 1 4 3 -2 6 -13 5 -11 0 -14 -3 -6 -6z"/>
<path d="M5531 5404 c0 -11 3 -14 6 -6 3 7 2 16 -1 19 -3 4 -6 -2 -5 -13z"/>
<path d="M6218 5413 c7 -3 16 -2 19 1 4 3 -2 6 -13 5 -11 0 -14 -3 -6 -6z"/>
<path d="M2398 5403 c7 -3 16 -2 19 1 4 3 -2 6 -13 5 -11 0 -14 -3 -6 -6z"/>
<path d="M6268 5403 c7 -3 16 -2 19 1 4 3 -2 6 -13 5 -11 0 -14 -3 -6 -6z"/>
<path d="M2358 5393 c7 -3 16 -2 19 1 4 3 -2 6 -13 5 -11 0 -14 -3 -6 -6z"/>
<path d="M6308 5393 c6 -2 18 -2 25 0 6 3 1 5 -13 5 -14 0 -19 -2 -12 -5z"/>
<path d="M6373 5383 c9 -2 23 -2 30 0 6 3 -1 5 -18 5 -16 0 -22 -2 -12 -5z"/>
<path d="M13422 5350 c-6 -10 -24 -20 -39 -23 -28 -4 -28 -4 -2 -6 24 -1 69
33 58 44 -3 2 -10 -4 -17 -15z"/>
<path d="M13203 5323 c15 -2 39 -2 55 0 15 2 2 4 -28 4 -30 0 -43 -2 -27 -4z"/>
<path d="M5496 5305 c-9 -26 -7 -32 5 -12 6 10 9 21 6 23 -2 3 -7 -2 -11 -11z"/>
<path d="M11103 5310 c9 -6 50 -13 90 -15 l72 -4 -67 9 c-37 4 -77 11 -90 15
-20 5 -21 4 -5 -5z"/>
<path d="M11333 5293 c15 -2 39 -2 55 0 15 2 2 4 -28 4 -30 0 -43 -2 -27 -4z"/>
<path d="M12040 5233 c0 -41 -24 -125 -45 -159 -63 -101 -143 -141 -264 -131
-60 5 -62 5 -21 -4 58 -13 141 -4 190 21 44 22 92 80 120 142 19 45 38 158 26
158 -3 0 -6 -12 -6 -27z"/>
<path d="M3280 5234 c0 -6 7 -19 16 -30 14 -18 14 -18 3 6 -14 31 -19 36 -19
24z"/>
<path d="M5456 5215 c-9 -26 -7 -32 5 -12 6 10 9 21 6 23 -2 3 -7 -2 -11 -11z"/>
<path d="M3325 5150 c9 -16 18 -30 21 -30 2 0 -2 14 -11 30 -9 17 -18 30 -21
30 -2 0 2 -13 11 -30z"/>
<path d="M5430 5160 c-6 -11 -8 -20 -6 -20 3 0 10 9 16 20 6 11 8 20 6 20 -3
0 -10 -9 -16 -20z"/>
<path d="M5395 5104 c-9 -15 -12 -23 -6 -20 11 7 35 46 28 46 -3 0 -12 -12
-22 -26z"/>
<path d="M3360 5091 c5 -11 15 -23 21 -27 6 -3 3 5 -6 20 -20 30 -30 35 -15 7z"/>
<path d="M11601 5057 c-1 -61 21 -106 53 -107 4 0 -2 9 -15 19 -18 14 -25 33
-30 77 l-6 59 -2 -48z"/>
<path d="M5340 5023 c-19 -27 -25 -40 -14 -31 18 16 59 78 51 78 -2 0 -19 -21
-37 -47z"/>
<path d="M3398 5035 c6 -11 25 -36 42 -55 l32 -35 -33 45 c-40 55 -55 72 -41
45z"/>
<path d="M8960 4983 c-8 -3 -23 -15 -32 -27 -16 -19 -18 -52 -18 -325 0 -241
-3 -301 -12 -294 -7 6 -42 21 -78 33 -87 31 -280 34 -385 7 -214 -55 -391
-224 -469 -449 -85 -247 -69 -553 40 -771 62 -122 212 -252 314 -271 27 -5 22
-1 -22 17 -192 82 -303 228 -354 470 -27 126 -24 345 5 462 60 233 198 411
387 496 65 30 204 59 281 59 80 0 187 -21 246 -49 l57 -27 0 312 0 313 26 20
c25 19 40 21 191 21 161 0 164 0 188 -25 l25 -24 0 -999 c0 -846 -2 -1001 -14
-1018 -13 -17 -29 -19 -136 -22 -68 -2 -138 -1 -156 3 -44 8 -64 46 -64 120 0
30 -3 55 -7 55 -5 -1 -25 -18 -46 -38 -44 -44 -122 -94 -204 -129 -32 -13 -44
-21 -28 -18 51 11 151 65 214 116 l61 49 0 -48 c0 -56 28 -109 64 -118 13 -3
83 -4 156 -2 124 3 133 4 151 27 18 22 19 54 19 1017 0 706 -3 1000 -11 1017
-6 14 -22 30 -36 36 -24 11 -324 15 -353 4z"/>
<path d="M5225 4883 c-43 -49 -64 -74 -46 -58 36 33 136 145 129 145 -3 0 -40
-39 -83 -87z"/>
<path d="M3495 4910 c37 -46 183 -201 164 -174 -7 11 -54 63 -103 115 -49 52
-76 78 -61 59z"/>
<path d="M7213 4912 c-6 -4 75 -6 181 -4 179 3 194 2 217 -17 l24 -19 3 -969
2 -970 -21 -19 c-20 -17 -38 -19 -218 -18 -134 0 -172 -2 -121 -6 121 -12 284
-11 319 1 17 6 36 19 41 29 14 26 13 1907 0 1947 -6 17 -22 35 -36 42 -28 12
-371 16 -391 3z"/>
<path d="M7170 4881 c-7 -13 -9 -334 -8 -983 l3 -963 5 970 c3 534 9 976 13
983 5 6 6 12 3 12 -3 0 -10 -9 -16 -19z"/>
<path d="M5124 4768 c-30 -34 -47 -58 -42 -58 3 0 19 18 37 40 34 43 38 55 5
18z"/>
<path d="M3670 4706 c0 -2 8 -10 18 -17 15 -13 16 -12 3 4 -13 16 -21 21 -21
13z"/>
<path d="M5050 4670 c-12 -16 -19 -30 -16 -30 2 0 14 14 26 30 12 17 19 30 16
30 -2 0 -14 -13 -26 -30z"/>
<path d="M3744 4598 c14 -25 39 -79 56 -120 16 -40 30 -67 30 -60 0 22 -69
175 -91 202 -16 19 -15 14 5 -22z"/>
<path d="M4982 4555 c-17 -37 -14 -45 4 -12 9 16 14 31 11 33 -2 2 -9 -7 -15
-21z"/>
<path d="M4942 4453 c-15 -48 -8 -55 8 -8 7 20 10 38 8 41 -3 2 -10 -13 -16
-33z"/>
<path d="M10157 4390 c-134 -21 -268 -82 -364 -164 -95 -83 -182 -229 -219
-371 -14 -55 -18 -108 -19 -245 0 -193 14 -269 75 -395 72 -147 198 -257 365
-315 l100 -35 220 0 220 0 110 37 c182 62 223 105 210 221 -14 126 -37 177
-80 177 -12 0 -48 -9 -81 -21 -32 -11 -97 -29 -144 -39 -70 -16 -75 -18 -30
-14 30 4 96 19 146 35 115 37 130 37 149 -1 19 -37 38 -172 30 -211 -11 -50
-75 -94 -198 -135 -111 -37 -114 -37 -303 -42 -171 -4 -200 -2 -275 17 -138
35 -221 80 -308 169 -89 89 -138 175 -173 302 -20 74 -23 106 -22 255 1 196
18 277 81 405 55 109 178 231 293 288 126 62 190 76 360 77 123 0 155 -3 210
-22 136 -45 240 -128 309 -246 57 -97 73 -171 75 -339 1 -204 1 -205 -203
-232 -53 -8 -82 -14 -66 -15 55 -2 215 27 240 43 33 22 45 73 45 196 0 174
-38 300 -125 415 -105 139 -243 204 -450 210 -66 2 -146 0 -178 -5z"/>
<path d="M11547 4390 c-165 -26 -367 -97 -411 -143 -28 -30 -29 -32 -22 -111
7 -99 29 -176 56 -201 23 -21 5 -25 220 51 87 31 122 37 211 42 185 8 258 -35
267 -159 l4 -59 -89 0 c-375 0 -648 -117 -741 -318 -24 -52 -26 -68 -27 -183
0 -125 0 -125 37 -201 47 -95 99 -148 185 -191 87 -44 150 -57 272 -57 145 0
245 35 355 125 l56 45 19 -38 c37 -71 101 -112 190 -117 l56 -4 -57 9 c-96 15
-163 63 -189 134 -7 20 -16 36 -19 36 -4 0 -19 -14 -36 -31 -47 -50 -143 -108
-217 -131 -92 -28 -282 -22 -367 10 -124 48 -207 127 -251 239 -33 85 -34 263
-1 345 31 77 115 161 210 211 123 65 335 107 537 107 l85 0 0 58 c-1 126 -75
181 -245 182 -107 0 -175 -15 -321 -70 -153 -57 -160 -52 -186 138 -17 121 -6
138 110 185 182 73 354 103 532 94 255 -13 403 -96 486 -272 44 -91 52 -170
58 -570 2 -170 8 -319 12 -330 13 -36 36 -55 69 -55 47 0 55 -15 55 -105 0
-105 -22 -136 -120 -166 -17 -5 -19 -8 -7 -8 31 -2 112 46 125 74 16 35 16
176 0 198 -7 9 -31 17 -53 19 -61 5 -64 16 -66 308 -2 271 -13 463 -29 545
-12 58 -55 147 -96 200 -43 54 -136 111 -227 141 -69 21 -106 26 -227 29 -80
2 -171 0 -203 -5z"/>
<path d="M3840 4351 c0 -11 4 -22 9 -25 4 -3 6 6 3 19 -5 30 -12 33 -12 6z"/>
<path d="M4911 4344 c0 -11 3 -14 6 -6 3 7 2 16 -1 19 -3 4 -6 -2 -5 -13z"/>
<path d="M4660 4290 l-235 -6 232 -2 c146 -1 234 2 238 8 3 6 5 9 3 8 -2 -1
-109 -5 -238 -8z"/>
<path d="M4013 4283 c76 -2 198 -2 270 0 73 1 11 3 -138 3 -148 0 -208 -2
-132 -3z"/>
<path d="M3897 4100 c-50 -40 -42 -128 15 -158 33 -18 914 -13 911 5 -2 7 3
10 11 7 20 -8 36 26 36 74 0 57 -43 93 -108 91 l-47 -2 40 -7 c32 -5 25 -7
-37 -8 -43 0 -78 4 -78 9 0 5 -146 9 -359 9 -346 0 -359 -1 -384 -20z m91 3
c-10 -2 -28 -2 -40 0 -13 2 -5 4 17 4 22 1 32 -1 23 -4z m255 0 c-18 -2 -48
-2 -65 0 -18 2 -4 4 32 4 36 0 50 -2 33 -4z m260 0 c-35 -2 -91 -2 -125 0 -35
2 -7 3 62 3 69 0 97 -1 63 -3z m356 -52 c-2 -6 -10 2 -17 17 -11 25 -11 25 4
10 9 -9 15 -21 13 -27z m-902 -107 c-3 -3 -12 -4 -19 -1 -8 3 -5 6 6 6 11 1
17 -2 13 -5z"/>
<path d="M10163 4064 c-84 -30 -143 -126 -168 -271 -6 -37 -4 -43 10 -43 13 0
15 3 7 13 -7 8 -6 31 4 76 37 161 114 231 253 231 121 0 187 -61 201 -185 7
-57 7 -58 9 -14 1 56 -23 130 -52 157 -52 49 -178 66 -264 36z"/>
<path d="M8559 3992 c-63 -32 -110 -95 -137 -181 -13 -44 -17 -92 -17 -216 1
-143 3 -166 24 -218 29 -73 83 -131 136 -146 22 -6 72 -10 110 -9 l70 1 -91 7
c-69 5 -100 12 -128 29 -75 46 -116 165 -116 337 0 121 14 202 45 265 48 93
94 129 190 149 l40 8 -36 1 c-22 1 -58 -10 -90 -27z"/>
<path d="M8775 4009 c22 -4 60 -14 85 -21 l45 -14 3 -326 2 -327 -32 -25 c-18
-13 -55 -34 -83 -46 -31 -13 -39 -18 -20 -15 33 7 104 46 129 71 14 13 16 59
16 344 l0 329 -66 21 c-36 11 -78 20 -93 19 -20 -1 -16 -3 14 -10z"/>
<path d="M10460 3810 c-13 -8 -12 -10 3 -10 9 0 17 5 17 10 0 12 -1 12 -20 0z"/>
<path d="M10310 3790 c-55 -7 -55 -7 -10 -7 25 -1 68 2 95 7 47 7 48 7 10 7
-22 0 -65 -3 -95 -7z"/>
<path d="M3939 3783 c-1 -5 -1 -11 0 -15 0 -4 -5 -5 -13 -2 -9 4 -18 -6 -25
-29 -10 -28 -9 -42 3 -70 28 -68 28 -68 487 -65 l411 3 24 28 c13 16 24 41 24
57 0 35 -19 80 -34 80 -6 0 -5 -5 2 -12 7 -7 12 -17 12 -22 -1 -13 -24 25 -25
39 0 12 -864 19 -866 8z m644 -10 c-117 -2 -309 -2 -425 0 -117 1 -22 2 212 2
234 0 329 -1 213 -2z m-10 -160 c-112 -2 -294 -2 -405 0 -112 1 -21 2 202 2
223 0 314 -1 203 -2z"/>
<path d="M10085 3770 l-60 -7 50 0 c28 0 79 3 115 7 l65 7 -55 0 c-30 0 -82
-3 -115 -7z"/>
<path d="M11613 3526 c-128 -40 -181 -135 -142 -253 11 -36 61 -83 87 -83 9 0
2 8 -17 18 -45 22 -71 73 -71 138 0 66 38 121 106 155 42 20 64 24 156 24 58
0 101 3 95 7 -19 12 -169 8 -214 -6z"/>
<path d="M10465 3523 c-16 -2 -127 -9 -245 -16 l-215 -12 2 -38 c1 -21 7 -46
13 -55 10 -15 10 -15 6 3 -2 11 -7 34 -11 51 l-6 30 238 13 c131 8 263 17 293
21 l55 7 -50 0 c-27 0 -63 -2 -80 -4z"/>
<path d="M11868 3428 c2 -55 1 -111 -2 -124 -8 -31 -66 -74 -129 -95 -29 -10
-42 -18 -30 -19 34 0 146 63 160 90 14 27 19 250 6 250 -5 0 -7 -46 -5 -102z"/>
<path d="M4152 3448 c3 -7 23 -27 46 -45 90 -69 234 -68 338 1 30 20 54 41 54
46 0 10 -221 7 -370 -5 -37 -3 -48 -1 -35 5 18 8 17 9 -8 9 -19 1 -27 -3 -25
-11z m428 -2 c0 -9 -30 -14 -35 -6 -4 6 3 10 14 10 12 0 21 -2 21 -4z m-223
-82 c-3 -3 -12 -4 -19 -1 -8 3 -5 6 6 6 11 1 17 -2 13 -5z"/>
<path d="M10030 3376 c-1 -36 79 -111 143 -135 56 -21 51 -10 -8 18 -58 27
-100 64 -123 106 -6 11 -12 16 -12 11z"/>
<path d="M10238 3223 c6 -2 18 -2 25 0 6 3 1 5 -13 5 -14 0 -19 -2 -12 -5z"/>
<path d="M10323 3213 c26 -2 68 -2 95 0 26 2 4 3 -48 3 -52 0 -74 -1 -47 -3z"/>
<path d="M11603 3183 c15 -2 39 -2 55 0 15 2 2 4 -28 4 -30 0 -43 -2 -27 -4z"/>
<path d="M7170 2926 c0 -2 8 -10 18 -17 15 -13 16 -12 3 4 -13 16 -21 21 -21
13z"/>
<path d="M8382 2868 c13 -3 70 -6 128 -6 58 0 115 3 128 6 13 4 -45 7 -128 7
-83 0 -141 -3 -128 -7z"/>
<path d="M12220 2870 c-34 -7 -34 -7 -5 -8 17 0 44 4 60 8 27 7 27 8 5 8 -14
-1 -41 -4 -60 -8z"/>
</g>
</svg>
